<svg  viewBox="0 0 300 150" version="1.1" xmlns="http://www.w3.org/2000/svg" xmlns:xlink="http://www.w3.org/1999/xlink" xml:space="preserve" xmlns:serif="http://www.serif.com/" style="fill-rule:evenodd;clip-rule:evenodd;stroke-linejoin:round;stroke-miterlimit:2;"><g><path d="M24.274,97.254c-1.692,-3.173 -2.992,-6.616 -3.835,-10.282c-5.222,-22.713 9.097,-45.419 31.955,-50.674c20.216,-4.647 40.384,5.901 48.379,24.119c-33.415,22.854 -18.178,24.308 -53.581,29.67c-16.663,2.523 -20.621,4.378 -22.918,7.167Z" style="fill:#e56161;"/><path d="M100.719,60.258c1.054,2.464 1.89,5.066 2.491,7.781c5.198,23.491 -9.154,46.673 -32.03,51.735c-19.185,4.246 -38.311,-5.591 -47.043,-22.732c2.301,-2.839 6.263,-4.69 22.938,-7.033c35.428,-4.978 20.185,-6.713 53.644,-29.751Z" style="fill:#ffe27b;"/></g><text x="112.468px" y="88.89px" style="font-family:'Roboto-Light', 'Roboto';font-weight:300;font-size:38.732px;fill:#4a4a4a;">FOCUSED</text></svg>