<svg viewBox="0 0 160 150" xmlns="http://www.w3.org/2000/svg" xml:space="preserve" style="fill-rule:evenodd;clip-rule:evenodd;stroke-linejoin:round;stroke-miterlimit:2"><path d="M144.025 34.72a71.935 71.935 0 0 1 8.565 16.898c13.342 37.953-6.836 79.669-45.033 93.097-33.781 11.876-70.415-2.324-87.648-32.033C72.818 67.027 46.4 67.474 106.095 51.441c28.097-7.547 34.529-11.493 37.93-16.721Z" style="fill:#e56161"/><path d="M20.032 112.945a75.752 75.752 0 0 1-5.775-12.867C.804 60.785 20.948 18.247 59.214 5.145c32.089-10.987 66.798 2.194 85.088 29.913-3.399 5.314-9.84 9.254-37.992 16.493-59.812 15.381-33.329 15.413-86.278 61.394Z" style="fill:#ffe27b"/></svg>